<?xml version="1.0" encoding="UTF-8" standalone="no"?>
<!-- Created with Inkscape (http://www.inkscape.org/) -->

<svg
   xmlns:dc="http://purl.org/dc/elements/1.1/"
   xmlns:cc="http://creativecommons.org/ns#"
   xmlns:rdf="http://www.w3.org/1999/02/22-rdf-syntax-ns#"
   xmlns:svg="http://www.w3.org/2000/svg"
   xmlns="http://www.w3.org/2000/svg"
   xmlns:sodipodi="http://sodipodi.sourceforge.net/DTD/sodipodi-0.dtd"
   xmlns:inkscape="http://www.inkscape.org/namespaces/inkscape"
   version="1.1"
   id="svg2"
   xml:space="preserve"
   width="61.840847"
   height="26.000364"
   viewBox="0 0 61.840847 26.000365"
   sodipodi:docname="rico-logo.svg"
   inkscape:version="0.92.2 (5c3e80d, 2017-08-06)"><metadata
     id="metadata8"><rdf:RDF><cc:Work
         rdf:about=""><dc:format>image/svg+xml</dc:format><dc:type
           rdf:resource="http://purl.org/dc/dcmitype/StillImage" /><dc:title></dc:title></cc:Work></rdf:RDF></metadata><defs
     id="defs6"><clipPath
       clipPathUnits="userSpaceOnUse"
       id="clipPath18"><path
         d="M 0,1.8311e-4 H 540 V 780.00018 H 0 Z"
         id="path16"
         inkscape:connector-curvature="0"
         style="clip-rule:evenodd" /></clipPath><clipPath
       clipPathUnits="userSpaceOnUse"
       id="clipPath28"><path
         d="M 8.047e-6,0 H 540.00001 V 780 H 8.047e-6 Z"
         id="path26"
         inkscape:connector-curvature="0"
         style="clip-rule:evenodd" /></clipPath><clipPath
       clipPathUnits="userSpaceOnUse"
       id="clipPath40"><path
         d="M 8.047e-6,0 H 540.00001 V 780 H 8.047e-6 Z"
         id="path38"
         inkscape:connector-curvature="0"
         style="clip-rule:evenodd" /></clipPath><clipPath
       clipPathUnits="userSpaceOnUse"
       id="clipPath52"><path
         d="M 0,1.8311e-4 H 540 V 780.00018 H 0 Z"
         id="path50"
         inkscape:connector-curvature="0"
         style="clip-rule:evenodd" /></clipPath><clipPath
       clipPathUnits="userSpaceOnUse"
       id="clipPath62"><path
         d="M 0,0 H 594.7 V 841.66 H 0 Z"
         id="path60"
         inkscape:connector-curvature="0" /></clipPath><clipPath
       clipPathUnits="userSpaceOnUse"
       id="clipPath76"><path
         d="M 0,841.66 V -0.61835 H 595.32 V 841.66"
         id="path74"
         inkscape:connector-curvature="0"
         style="clip-rule:evenodd" /></clipPath><clipPath
       clipPathUnits="userSpaceOnUse"
       id="clipPath86"><path
         d="M 1.7753e-5,-0.61835 H 595.32002 v 842.28 H 1.7753e-5 Z"
         id="path84"
         inkscape:connector-curvature="0"
         style="clip-rule:evenodd" /></clipPath><clipPath
       clipPathUnits="userSpaceOnUse"
       id="clipPath96"><path
         d="m 345.52,426.6 h 15.978 v 3.0006 H 345.52 Z"
         id="path94"
         inkscape:connector-curvature="0"
         style="clip-rule:evenodd" /></clipPath><clipPath
       clipPathUnits="userSpaceOnUse"
       id="clipPath106"><path
         d="m 330.52,426.6 h 15.978 v 3.0006 H 330.52 Z"
         id="path104"
         inkscape:connector-curvature="0"
         style="clip-rule:evenodd" /></clipPath><clipPath
       clipPathUnits="userSpaceOnUse"
       id="clipPath116"><path
         d="m 315.51,426.6 h 15.978 v 3.0006 H 315.51 Z"
         id="path114"
         inkscape:connector-curvature="0"
         style="clip-rule:evenodd" /></clipPath><clipPath
       clipPathUnits="userSpaceOnUse"
       id="clipPath126"><path
         d="m 300.51,426.6 h 15.978 v 3.0006 H 300.51 Z"
         id="path124"
         inkscape:connector-curvature="0"
         style="clip-rule:evenodd" /></clipPath><clipPath
       clipPathUnits="userSpaceOnUse"
       id="clipPath136"><path
         d="M 0,841.66 V -0.61835 H 595.32 V 841.66"
         id="path134"
         inkscape:connector-curvature="0" /></clipPath><clipPath
       clipPathUnits="userSpaceOnUse"
       id="clipPath146"><path
         d="M 0,841.66 V -0.61835 H 595.32 V 841.66"
         id="path144"
         inkscape:connector-curvature="0" /></clipPath><clipPath
       clipPathUnits="userSpaceOnUse"
       id="clipPath156"><path
         d="M 0,841.66 V -0.61835 H 595.32 V 841.66"
         id="path154"
         inkscape:connector-curvature="0" /></clipPath><clipPath
       clipPathUnits="userSpaceOnUse"
       id="clipPath166"><path
         d="M 0,841.66 V -0.61835 H 595.32 V 841.66"
         id="path164"
         inkscape:connector-curvature="0" /></clipPath><clipPath
       clipPathUnits="userSpaceOnUse"
       id="clipPath176"><path
         d="M 0,841.66 V -0.61835 H 595.32 V 841.66"
         id="path174"
         inkscape:connector-curvature="0" /></clipPath><clipPath
       clipPathUnits="userSpaceOnUse"
       id="clipPath186"><path
         d="M 0,841.66 V -0.61835 H 595.32 V 841.66"
         id="path184"
         inkscape:connector-curvature="0" /></clipPath><clipPath
       clipPathUnits="userSpaceOnUse"
       id="clipPath196"><path
         d="M 0,841.66 V -0.61835 H 595.32 V 841.66"
         id="path194"
         inkscape:connector-curvature="0" /></clipPath><clipPath
       clipPathUnits="userSpaceOnUse"
       id="clipPath206"><path
         d="M 0,841.66 V -0.61835 H 595.32 V 841.66"
         id="path204"
         inkscape:connector-curvature="0" /></clipPath><clipPath
       clipPathUnits="userSpaceOnUse"
       id="clipPath216"><path
         d="M 0,841.66 V -0.61835 H 595.32 V 841.66"
         id="path214"
         inkscape:connector-curvature="0" /></clipPath><clipPath
       clipPathUnits="userSpaceOnUse"
       id="clipPath226"><path
         d="M 0,841.66 V -0.61835 H 595.32 V 841.66"
         id="path224"
         inkscape:connector-curvature="0" /></clipPath><clipPath
       clipPathUnits="userSpaceOnUse"
       id="clipPath236"><path
         d="M 0,841.66 V -0.61835 H 595.32 V 841.66"
         id="path234"
         inkscape:connector-curvature="0" /></clipPath><clipPath
       clipPathUnits="userSpaceOnUse"
       id="clipPath246"><path
         d="M 0,841.66 V -0.61835 H 595.32 V 841.66"
         id="path244"
         inkscape:connector-curvature="0" /></clipPath><clipPath
       clipPathUnits="userSpaceOnUse"
       id="clipPath256"><path
         d="M 0,841.66 V -0.61835 H 595.32 V 841.66"
         id="path254"
         inkscape:connector-curvature="0" /></clipPath><clipPath
       clipPathUnits="userSpaceOnUse"
       id="clipPath266"><path
         d="M 0,841.66 V -0.61835 H 595.32 V 841.66"
         id="path264"
         inkscape:connector-curvature="0" /></clipPath><clipPath
       clipPathUnits="userSpaceOnUse"
       id="clipPath276"><path
         d="M 0,841.66 V -0.61835 H 595.32 V 841.66"
         id="path274"
         inkscape:connector-curvature="0" /></clipPath><clipPath
       clipPathUnits="userSpaceOnUse"
       id="clipPath286"><path
         d="M 0,841.66 V -0.61835 H 595.32 V 841.66"
         id="path284"
         inkscape:connector-curvature="0" /></clipPath><clipPath
       clipPathUnits="userSpaceOnUse"
       id="clipPath296"><path
         d="m 83.867,788.93 -2.626,-2.78 2.626,-2.7 c 1.425,-1.5 3.751,-1.5 5.176,0 1.425,1.5 1.425,3.97 0,5.48 -1.5,1.5 -3.751,1.5 -5.176,0 z m -13.343,5.28 c 1.941,0 3.891,-0.78 5.391,-2.36 l -2.775,-2.92 c -1.426,1.5 -3.751,1.5 -5.176,0 -1.426,-1.51 -1.426,-3.98 0,-5.48 1.425,-1.5 3.75,-1.5 5.176,0 l 7.801,8.25 0.15,0.15 c 2.926,3.15 7.727,3.15 10.652,0 3.001,-3.15 3.001,-8.18 0.076,-11.33 -3.001,-3.15 -7.802,-3.15 -10.728,0 l -0.3,0.3 -2.325,2.48 -2.326,-2.48 -0.225,-0.3 c -3,-3.15 -7.801,-3.15 -10.727,0 -2.925,3.15 -2.925,8.18 0,11.33 1.463,1.58 3.395,2.36 5.336,2.36 z"
         id="path294"
         inkscape:connector-curvature="0"
         style="clip-rule:evenodd" /></clipPath><clipPath
       clipPathUnits="userSpaceOnUse"
       id="clipPath306"><path
         d="m 59.487,799.2 c 1.35,0 2.475,-1.12 2.475,-2.55 0,-1.35 -1.125,-2.47 -2.475,-2.47 -1.425,0 -2.551,1.12 -2.551,2.47 0,1.43 1.126,2.55 2.551,2.55 z"
         id="path304"
         inkscape:connector-curvature="0"
         style="clip-rule:evenodd" /></clipPath><clipPath
       clipPathUnits="userSpaceOnUse"
       id="clipPath316"><path
         d="m 56.936,778.2 h 4.0508 v 15.003 H 56.936 Z"
         id="path314"
         inkscape:connector-curvature="0"
         style="clip-rule:evenodd" /></clipPath><clipPath
       clipPathUnits="userSpaceOnUse"
       id="clipPath326"><path
         d="m 50.935,793.2 h 4.051 v -3.97 H 51.01 c -1.575,0 -2.925,-1.28 -2.925,-2.86 v -8.17 h -4.126 v 8.17 c 0,3.76 3.151,6.83 6.976,6.83 z"
         id="path324"
         inkscape:connector-curvature="0"
         style="clip-rule:evenodd" /></clipPath><clipPath
       clipPathUnits="userSpaceOnUse"
       id="clipPath336"><path
         d="M 2.663e-5,265.93 8.0772,265.11 C 56.176,255.22 102.12,230.48 139.45,190.9 L 46.734,92.552 C 34.638,105.27 20.685,114.8 5.8114,121.16 L 2.663e-5,122.98 Z M 493.87,270.06 c 32.55,0 65.11,-6.6 95.75,-19.79 l 5.7,-3.19 V 73.565 l -14.18,18.461 c -48.46,50.864 -126.62,50.864 -174.48,0 l -87.02,-92.26935 0.35,-0.375 H 133.35 L 308.69,185.42 l 5.25,5.48 c 49.73,52.77 114.83,79.16 179.93,79.16 z"
         id="path334"
         inkscape:connector-curvature="0"
         style="clip-rule:evenodd" /></clipPath><clipPath
       clipPathUnits="userSpaceOnUse"
       id="clipPath346"><path
         d="M 8.047e-6,0 H 540.00001 V 780 H 8.047e-6 Z"
         id="path344"
         inkscape:connector-curvature="0"
         style="clip-rule:evenodd" /></clipPath><clipPath
       clipPathUnits="userSpaceOnUse"
       id="clipPath358"><path
         d="M 8.047e-6,0 H 540.00001 V 780 H 8.047e-6 Z"
         id="path356"
         inkscape:connector-curvature="0"
         style="clip-rule:evenodd" /></clipPath><clipPath
       clipPathUnits="userSpaceOnUse"
       id="clipPath370"><path
         d="M 8.047e-6,0 H 540.00001 V 780 H 8.047e-6 Z"
         id="path368"
         inkscape:connector-curvature="0"
         style="clip-rule:evenodd" /></clipPath><clipPath
       clipPathUnits="userSpaceOnUse"
       id="clipPath382"><path
         d="M 8.047e-6,0 H 540.00001 V 780 H 8.047e-6 Z"
         id="path380"
         inkscape:connector-curvature="0"
         style="clip-rule:evenodd" /></clipPath><clipPath
       clipPathUnits="userSpaceOnUse"
       id="clipPath394"><path
         d="M 8.047e-6,0 H 540.00001 V 780 H 8.047e-6 Z"
         id="path392"
         inkscape:connector-curvature="0"
         style="clip-rule:evenodd" /></clipPath></defs><sodipodi:namedview
     pagecolor="#ffffff"
     bordercolor="#666666"
     borderopacity="1"
     objecttolerance="10"
     gridtolerance="10"
     guidetolerance="10"
     inkscape:pageopacity="0"
     inkscape:pageshadow="2"
     inkscape:window-width="1600"
     inkscape:window-height="837"
     id="namedview4"
     showgrid="false"
     fit-margin-top="0"
     fit-margin-left="0"
     fit-margin-right="0"
     fit-margin-bottom="0"
     inkscape:zoom="10.269366"
     inkscape:cx="29.093125"
     inkscape:cy="14.629047"
     inkscape:window-x="-8"
     inkscape:window-y="-8"
     inkscape:window-maximized="1"
     inkscape:current-layer="g46" /><g
     id="g10"
     inkscape:groupmode="layer"
     inkscape:label="rico-logo"
     transform="matrix(1.3333333,0,0,-1.3333333,-54.321064,987.50123)"><g
       id="g12" /><g
       id="g46"><g
         id="g48"
         clip-path="url(#clipPath52)"
         inkscape:export-filename="G:\Users\suitedoalex\sites\rico-logo-7.png"
         inkscape:export-xdpi="77.618599"
         inkscape:export-ydpi="77.618599"><g
           id="g54"
           transform="matrix(7.655,0,0,10.833,0,1.2207e-4)"><g
             id="g56"
             transform="scale(0.12107,0.085545)"><g
               id="g58"
               clip-path="url(#clipPath62)"><g
                 id="g64"><g
                   id="g66"><g
                     id="g68" /></g><g
                   id="g70" /><g
                   id="g290"><g
                     id="g292"
                     clip-path="url(#clipPath296)"><path
                       d="m 57.987,773.17 v 0 H 98.945 V 799.2 H 57.987 Z"
                       style="fill:#ff5200;fill-opacity:1;fill-rule:nonzero;stroke:none"
                       id="path298"
                       inkscape:connector-curvature="0" /></g></g><g
                   id="g300"><g
                     id="g302"
                     clip-path="url(#clipPath306)"><path
                       d="m 51.985,789.15 v 0 h 15.004 v 15 H 51.985 Z"
                       style="fill:#ff5200;fill-opacity:1;fill-rule:nonzero;stroke:none"
                       id="path308"
                       inkscape:connector-curvature="0" /></g></g><g
                   id="g310"><g
                     id="g312"
                     clip-path="url(#clipPath316)"><path
                       d="m 51.985,773.17 v 0 h 13.953 v 24.98 H 51.985 Z"
                       style="fill:#ff5200;fill-opacity:1;fill-rule:nonzero;stroke:none"
                       id="path318"
                       inkscape:connector-curvature="0" /></g></g><g
                   id="g320"><g
                     id="g322"
                     clip-path="url(#clipPath326)"><path
                       d="m 38.933,773.17 v 0 h 21.004 v 24.98 H 38.933 Z"
                       style="fill:#ff5200;fill-opacity:1;fill-rule:nonzero;stroke:none"
                       id="path328"
                       inkscape:connector-curvature="0" /></g></g></g></g></g></g></g></g></g></svg>